<svg data-v-fde0c5aa="" xmlns="http://www.w3.org/2000/svg" viewBox="0 0 300 300" class="iconLeft"><!----><defs data-v-fde0c5aa=""><!----></defs><rect data-v-fde0c5aa="" fill="#DEE5F3" x="0" y="0" width="300px" height="300px" class="logo-background-square"></rect><defs data-v-fde0c5aa=""><!----></defs><g data-v-fde0c5aa="" id="747e8742-3027-402b-ba69-b42ced7e8101" fill="#0C203C" transform="matrix(2.1659516653865856,0,0,2.1659516653865856,82.24034541710643,131.50277337662618)"><path d="M5.56 13.61L5.56 13.61Q3.74 13.61 2.72 12.54L2.72 12.54L2.72 12.54Q1.71 11.48 1.71 9.42L1.71 9.42L1.71 3.75L2.18 3.75L2.18 9.41L2.18 9.41Q2.18 11.28 3.05 12.23L3.05 12.23L3.05 12.23Q3.92 13.17 5.56 13.17L5.56 13.17L5.56 13.17Q7.18 13.17 8.06 12.23L8.06 12.23L8.06 12.23Q8.93 11.28 8.93 9.41L8.93 9.41L8.93 3.75L9.39 3.75L9.39 9.42L9.39 9.42Q9.39 11.48 8.39 12.54L8.39 12.54L8.39 12.54Q7.38 13.61 5.56 13.61L5.56 13.61ZM16.09 6.23L16.09 6.23Q17.44 6.23 18.23 7.02L18.23 7.02L18.23 7.02Q19.01 7.81 19.01 9.28L19.01 9.28L19.01 13.55L18.55 13.55L18.55 9.31L18.55 9.31Q18.55 8.02 17.90 7.34L17.90 7.34L17.90 7.34Q17.25 6.66 16.04 6.66L16.04 6.66L16.04 6.66Q14.69 6.66 13.90 7.47L13.90 7.47L13.90 7.47Q13.12 8.27 13.12 9.63L13.12 9.63L13.12 13.55L12.66 13.55L12.66 6.29L13.10 6.29L13.10 8.06L13.10 8.06Q13.45 7.21 14.23 6.72L14.23 6.72L14.23 6.72Q15.01 6.23 16.09 6.23L16.09 6.23ZM22.04 13.55L22.04 6.29L22.50 6.29L22.50 13.55L22.04 13.55ZM22.26 4.38L22.26 4.38Q22.08 4.38 21.94 4.25L21.94 4.25L21.94 4.25Q21.80 4.12 21.80 3.93L21.80 3.93L21.80 3.93Q21.80 3.74 21.93 3.60L21.93 3.60L21.93 3.60Q22.06 3.47 22.26 3.47L22.26 3.47L22.26 3.47Q22.44 3.47 22.58 3.60L22.58 3.60L22.58 3.60Q22.72 3.74 22.72 3.92L22.72 3.92L22.72 3.92Q22.72 4.10 22.58 4.24L22.58 4.24L22.58 4.24Q22.44 4.38 22.26 4.38L22.26 4.38ZM27.71 13.55L27.71 4.19L24.11 4.19L24.11 3.75L31.77 3.75L31.77 4.19L28.17 4.19L28.17 13.55L27.71 13.55ZM33.82 8.04L33.82 8.04Q34.15 7.17 34.87 6.70L34.87 6.70L34.87 6.70Q35.59 6.23 36.65 6.23L36.65 6.23L36.65 6.69L36.53 6.69L36.53 6.69Q35.27 6.69 34.55 7.49L34.55 7.49L34.55 7.49Q33.84 8.29 33.84 9.69L33.84 9.69L33.84 13.55L33.38 13.55L33.38 6.29L33.82 6.29L33.82 8.04ZM41.19 6.23L41.19 6.23Q42.49 6.23 43.18 6.90L43.18 6.90L43.18 6.90Q43.88 7.57 43.88 8.85L43.88 8.85L43.88 13.55L43.43 13.55L43.43 12.10L43.43 12.10Q43.08 12.80 42.38 13.20L42.38 13.20L42.38 13.20Q41.69 13.59 40.73 13.59L40.73 13.59L40.73 13.59Q39.51 13.59 38.81 13.03L38.81 13.03L38.81 13.03Q38.12 12.47 38.12 11.55L38.12 11.55L38.12 11.55Q38.12 10.67 38.75 10.11L38.75 10.11L38.75 10.11Q39.38 9.56 40.77 9.56L40.77 9.56L43.41 9.56L43.41 8.85L43.41 8.85Q43.41 7.77 42.85 7.21L42.85 7.21L42.85 7.21Q42.28 6.65 41.17 6.65L41.17 6.65L41.17 6.65Q40.40 6.65 39.73 6.92L39.73 6.92L39.73 6.92Q39.06 7.18 38.58 7.63L38.58 7.63L38.33 7.29L38.33 7.29Q38.86 6.79 39.61 6.51L39.61 6.51L39.61 6.51Q40.36 6.23 41.19 6.23L41.19 6.23ZM40.75 13.20L40.75 13.20Q42.71 13.20 43.41 11.45L43.41 11.45L43.41 9.94L40.77 9.94L40.77 9.94Q39.63 9.94 39.11 10.37L39.11 10.37L39.11 10.37Q38.58 10.79 38.58 11.52L38.58 11.52L38.58 11.52Q38.58 12.31 39.16 12.75L39.16 12.75L39.16 12.75Q39.75 13.20 40.75 13.20L40.75 13.20ZM50.33 6.23L50.33 6.23Q51.69 6.23 52.47 7.02L52.47 7.02L52.47 7.02Q53.26 7.81 53.26 9.28L53.26 9.28L53.26 13.55L52.79 13.55L52.79 9.31L52.79 9.31Q52.79 8.02 52.14 7.34L52.14 7.34L52.14 7.34Q51.49 6.66 50.29 6.66L50.29 6.66L50.29 6.66Q48.93 6.66 48.15 7.47L48.15 7.47L48.15 7.47Q47.36 8.27 47.36 9.63L47.36 9.63L47.36 13.55L46.90 13.55L46.90 6.29L47.35 6.29L47.35 8.06L47.35 8.06Q47.70 7.21 48.47 6.72L48.47 6.72L48.47 6.72Q49.25 6.23 50.33 6.23L50.33 6.23ZM58.03 13.59L58.03 13.59Q57.15 13.59 56.37 13.33L56.37 13.33L56.37 13.33Q55.59 13.06 55.16 12.63L55.16 12.63L55.38 12.26L55.38 12.26Q55.83 12.66 56.54 12.92L56.54 12.92L56.54 12.92Q57.25 13.19 58.04 13.19L58.04 13.19L58.04 13.19Q59.22 13.19 59.78 12.79L59.78 12.79L59.78 12.79Q60.34 12.39 60.34 11.68L60.34 11.68L60.34 11.68Q60.34 11.17 60.04 10.88L60.04 10.88L60.04 10.88Q59.74 10.58 59.29 10.44L59.29 10.44L59.29 10.44Q58.84 10.30 58.09 10.16L58.09 10.16L58.09 10.16Q57.20 10.00 56.68 9.82L56.68 9.82L56.68 9.82Q56.15 9.65 55.79 9.25L55.79 9.25L55.79 9.25Q55.43 8.86 55.43 8.16L55.43 8.16L55.43 8.16Q55.43 7.34 56.10 6.78L56.10 6.78L56.10 6.78Q56.78 6.23 58.09 6.23L58.09 6.23L58.09 6.23Q58.76 6.23 59.43 6.43L59.43 6.43L59.43 6.43Q60.10 6.64 60.52 6.97L60.52 6.97L60.28 7.34L60.28 7.34Q59.85 7.00 59.27 6.82L59.27 6.82L59.27 6.82Q58.69 6.65 58.07 6.65L58.07 6.65L58.07 6.65Q56.99 6.65 56.45 7.06L56.45 7.06L56.45 7.06Q55.90 7.48 55.90 8.15L55.90 8.15L55.90 8.15Q55.90 8.68 56.21 8.99L56.21 8.99L56.21 8.99Q56.52 9.30 56.97 9.44L56.97 9.44L56.97 9.44Q57.43 9.59 58.21 9.74L58.21 9.74L58.21 9.74Q59.05 9.90 59.57 10.07L59.57 10.07L59.57 10.07Q60.09 10.25 60.45 10.63L60.45 10.63L60.45 10.63Q60.80 11.00 60.80 11.68L60.80 11.68L60.80 11.68Q60.80 12.56 60.09 13.08L60.09 13.08L60.09 13.08Q59.37 13.59 58.03 13.59L58.03 13.59ZM65.24 6.23L65.24 6.23Q66.54 6.23 67.23 6.90L67.23 6.90L67.23 6.90Q67.93 7.57 67.93 8.85L67.93 8.85L67.93 13.55L67.48 13.55L67.48 12.10L67.48 12.10Q67.13 12.80 66.44 13.20L66.44 13.20L66.44 13.20Q65.74 13.59 64.78 13.59L64.78 13.59L64.78 13.59Q63.56 13.59 62.87 13.03L62.87 13.03L62.87 13.03Q62.17 12.47 62.17 11.55L62.17 11.55L62.17 11.55Q62.17 10.67 62.80 10.11L62.80 10.11L62.80 10.11Q63.43 9.56 64.82 9.56L64.82 9.56L67.47 9.56L67.47 8.85L67.47 8.85Q67.47 7.77 66.90 7.21L66.90 7.21L66.90 7.21Q66.33 6.65 65.23 6.65L65.23 6.65L65.23 6.65Q64.46 6.65 63.78 6.92L63.78 6.92L63.78 6.92Q63.11 7.18 62.64 7.63L62.64 7.63L62.38 7.29L62.38 7.29Q62.92 6.79 63.66 6.51L63.66 6.51L63.66 6.51Q64.41 6.23 65.24 6.23L65.24 6.23ZM64.81 13.20L64.81 13.20Q66.77 13.20 67.47 11.45L67.47 11.45L67.47 9.94L64.82 9.94L64.82 9.94Q63.69 9.94 63.16 10.37L63.16 10.37L63.16 10.37Q62.64 10.79 62.64 11.52L62.64 11.52L62.64 11.52Q62.64 12.31 63.22 12.75L63.22 12.75L63.22 12.75Q63.80 13.20 64.81 13.20L64.81 13.20ZM73.74 13.59L73.74 13.59Q72.70 13.59 71.88 13.13L71.88 13.13L71.88 13.13Q71.06 12.66 70.59 11.82L70.59 11.82L70.59 11.82Q70.13 10.98 70.13 9.91L70.13 9.91L70.13 9.91Q70.13 8.85 70.59 8.01L70.59 8.01L70.59 8.01Q71.06 7.17 71.88 6.70L71.88 6.70L71.88 6.70Q72.70 6.23 73.74 6.23L73.74 6.23L73.74 6.23Q74.56 6.23 75.27 6.54L75.27 6.54L75.27 6.54Q75.98 6.86 76.43 7.48L76.43 7.48L76.08 7.77L76.08 7.77Q75.68 7.22 75.08 6.94L75.08 6.94L75.08 6.94Q74.47 6.66 73.74 6.66L73.74 6.66L73.74 6.66Q72.84 6.66 72.12 7.08L72.12 7.08L72.12 7.08Q71.40 7.49 70.99 8.22L70.99 8.22L70.99 8.22Q70.59 8.96 70.59 9.91L70.59 9.91L70.59 9.91Q70.59 10.86 70.99 11.61L70.99 11.61L70.99 11.61Q71.40 12.35 72.12 12.76L72.12 12.76L72.12 12.76Q72.84 13.17 73.74 13.17L73.74 13.17L73.74 13.17Q74.47 13.17 75.08 12.89L75.08 12.89L75.08 12.89Q75.68 12.61 76.08 12.07L76.08 12.07L76.43 12.35L76.43 12.35Q75.98 12.96 75.27 13.28L75.27 13.28L75.27 13.28Q74.56 13.59 73.74 13.59L73.74 13.59ZM81.83 12.75L82.07 13.09L82.07 13.09Q81.82 13.33 81.42 13.46L81.42 13.46L81.42 13.46Q81.03 13.59 80.61 13.59L80.61 13.59L80.61 13.59Q79.73 13.59 79.25 13.10L79.25 13.10L79.25 13.10Q78.76 12.60 78.76 11.73L78.76 11.73L78.76 6.69L77.39 6.69L77.39 6.29L78.76 6.29L78.76 4.69L79.23 4.69L79.23 6.29L81.62 6.29L81.62 6.69L79.23 6.69L79.23 11.66L79.23 11.66Q79.23 12.40 79.59 12.80L79.59 12.80L79.59 12.80Q79.95 13.19 80.65 13.19L80.65 13.19L80.65 13.19Q81.35 13.19 81.83 12.75L81.83 12.75Z"></path></g><defs data-v-fde0c5aa=""><linearGradient data-v-fde0c5aa="" gradientTransform="rotate(25)" id="2793dc65-a28b-4562-823f-9e732bdeb94f" x1="0%" y1="0%" x2="100%" y2="0%"><stop data-v-fde0c5aa="" offset="0%" stop-color="#288B58" stop-opacity="1"></stop><stop data-v-fde0c5aa="" offset="100%" stop-color="#1522F1" stop-opacity="1"></stop></linearGradient></defs><g data-v-fde0c5aa="" id="ae1ff4b4-b0c9-4417-925e-42767a42fa14" stroke="none" fill="url(#2793dc65-a28b-4562-823f-9e732bdeb94f)" transform="matrix(0.531356820121645,0,0,0.531356820121645,39.468643179878356,132.99658175610736)"><path d="M26 57h14v2H26z"></path><path d="M63 34.82v-5.64l-2.524-.505a10.878 10.878 0 0 0-.718-1.732l1.429-2.142-3.987-3.987-2.143 1.428a10.996 10.996 0 0 0-1.731-.717L52.819 19H51V6c0-2.757-2.243-5-5-5H20c-2.757 0-5 2.243-5 5v7H4c-1.654 0-3 1.346-3 3v18c0 1.654 1.346 3 3 3h11v21c0 2.757 2.243 5 5 5h26c2.757 0 5-2.243 5-5V45h1.819l.506-2.524c.598-.19 1.177-.43 1.731-.717l2.143 1.428 3.987-3.987-1.429-2.142c.288-.555.528-1.134.718-1.732L63 34.82zM47.181 19l-.181.902V11h2v8h-1.819zm-6.939 7.943a10.972 10.972 0 0 0-.718 1.732L37 29.18v5.64l2.524.505c.189.598.43 1.177.718 1.732l-1.429 2.142 3.987 3.987 2.143-1.428c.018.01.038.017.057.026V53H21V37h1.026L29 40.653V37h6v-2h-6v-2h6v-2h-6v-2h6v-2h-6v-2h6v-2h-6v-2h11v-2H29v-2h14v-2H28.816A2.996 2.996 0 0 0 26 13h-5v-2h24v11.215l-.057.026-2.143-1.428-3.987 3.987 1.429 2.143zM20 3h26c1.654 0 3 1.346 3 3v3H17V6c0-1.654 1.346-3 3-3zm-3 8h2v2h-2v-2zM3 34V16c0-.551.448-1 1-1h22c.552 0 1 .449 1 1v21.347L22.519 35H4c-.552 0-1-.449-1-1zm16 3v16h-2V37h2zm27 24H20c-1.654 0-3-1.346-3-3v-3h32v3c0 1.654-1.346 3-3 3zm3-8h-2v-8.902l.181.902H49v8zm9.868-19.393l-.155.61a8.963 8.963 0 0 1-.984 2.375l-.322.542 1.206 1.81-1.669 1.669-1.811-1.207-.541.323a8.94 8.94 0 0 1-2.374.983l-.611.155L51.181 43H48.82l-.426-2.132-.611-.155a8.94 8.94 0 0 1-2.374-.983l-.541-.323-1.811 1.207-1.669-1.669 1.206-1.81-.322-.542a8.93 8.93 0 0 1-.984-2.375l-.155-.61L39 33.18v-2.36l2.132-.427.155-.61a8.963 8.963 0 0 1 .984-2.375l.322-.542-1.206-1.81 1.669-1.669 1.811 1.207.541-.323a8.94 8.94 0 0 1 2.374-.983l.611-.155.426-2.133h2.361l.426 2.132.611.155a8.94 8.94 0 0 1 2.374.983l.541.323 1.811-1.207 1.669 1.669-1.206 1.81.322.542a8.93 8.93 0 0 1 .984 2.375l.155.61L61 30.82v2.36l-2.132.427z"></path><path d="M53 32c0-1.654-1.346-3-3-3s-3 1.346-3 3 1.346 3 3 3 3-1.346 3-3zm-4 0a1.001 1.001 0 1 1 1 1c-.552 0-1-.449-1-1zM13.5 21h3c.827 0 1.5.673 1.5 1.5h2c0-1.93-1.57-3.5-3.5-3.5H16v-2h-2v2h-.5c-1.93 0-3.5 1.57-3.5 3.5s1.57 3.5 3.5 3.5h3c.827 0 1.5.673 1.5 1.5s-.673 1.5-1.5 1.5h-3c-.827 0-1.5-.673-1.5-1.5h-2c0 1.93 1.57 3.5 3.5 3.5h.5v2h2v-2h.5c1.93 0 3.5-1.57 3.5-3.5S18.43 24 16.5 24h-3c-.827 0-1.5-.673-1.5-1.5s.673-1.5 1.5-1.5zM37 45h2v4H29v2h12v-8h-4z"></path><path d="M25 45h10v-2H23v8h4v-2h-2zM5 17h2v2H5zM23 17h2v2h-2zM5 31h2v2H5zM23 31h2v2h-2zM50 37c-2.757 0-5-2.243-5-5 0-1.04.321-2.04.928-2.893l-1.629-1.16A6.949 6.949 0 0 0 43 32c0 3.86 3.141 7 7 7a6.951 6.951 0 0 0 4.053-1.299l-1.16-1.629A4.964 4.964 0 0 1 50 37zM50 25a6.951 6.951 0 0 0-4.053 1.299l1.16 1.629A4.964 4.964 0 0 1 50 27c2.757 0 5 2.243 5 5 0 1.04-.321 2.04-.928 2.893l1.629 1.16A6.949 6.949 0 0 0 57 32c0-3.86-3.141-7-7-7z"></path></g><!----></svg>