<?xml version="1.0" encoding="UTF-8" standalone="no"?>
<svg
   data-v-423bf9ae=""
   viewBox="0 0 100 100"
   class="font"
   version="1.1"
   id="svg5"
   width="100"
   height="100"
   sodipodi:docname="icon.svg"
   inkscape:version="1.1.1 (3bf5ae0d25, 2021-09-20)"
   xmlns:inkscape="http://www.inkscape.org/namespaces/inkscape"
   xmlns:sodipodi="http://sodipodi.sourceforge.net/DTD/sodipodi-0.dtd"
   xmlns="http://www.w3.org/2000/svg"
   xmlns:svg="http://www.w3.org/2000/svg">
  <sodipodi:namedview
     id="namedview10"
     pagecolor="#ffffff"
     bordercolor="#666666"
     borderopacity="1.0"
     inkscape:pageshadow="2"
     inkscape:pageopacity="0.0"
     inkscape:pagecheckerboard="0"
     showgrid="false"
     inkscape:zoom="1.5875"
     inkscape:cx="128.50394"
     inkscape:cy="134.80315"
     inkscape:window-width="1900"
     inkscape:window-height="1036"
     inkscape:window-x="8"
     inkscape:window-y="32"
     inkscape:window-maximized="1"
     inkscape:current-layer="svg5" />
  <defs
     id="defs9" />
  <!---->
  <!---->
  <!---->
  <!---->
  <!---->
  <rect
     style="fill:#3d4451;fill-opacity:1;stroke-width:2.51339;stroke-linecap:round;stroke-linejoin:round"
     id="rect948"
     width="100"
     height="100"
     x="0"
     y="0"
     ry="11.536248"
     rx="11.536248" />
  <g
     data-v-423bf9ae=""
     id="98529555-7380-4fe4-87a6-77d599ba6ec0"
     transform="matrix(0.96500849,0,0,0.96500849,19.119723,19.119728)"
     stroke="none"
     fill="#ffffff"
     style="fill:#ebecf0;fill-opacity:1;stroke-width:1.50425">
    <path
       d="m 26,57 h 14 v 2 H 26 Z"
       id="path5"
       style="fill:#ebecf0;fill-opacity:1;stroke-width:1.50425" />
    <path
       d="M 63,34.82 V 29.18 L 60.476,28.675 A 10.878,10.878 0 0 0 59.758,26.943 L 61.187,24.801 57.2,20.814 55.057,22.242 A 10.996,10.996 0 0 0 53.326,21.525 L 52.819,19 H 51 V 6 C 51,3.243 48.757,1 46,1 H 20 c -2.757,0 -5,2.243 -5,5 v 7 H 4 c -1.654,0 -3,1.346 -3,3 v 18 c 0,1.654 1.346,3 3,3 h 11 v 21 c 0,2.757 2.243,5 5,5 h 26 c 2.757,0 5,-2.243 5,-5 V 45 h 1.819 l 0.506,-2.524 c 0.598,-0.19 1.177,-0.43 1.731,-0.717 l 2.143,1.428 3.987,-3.987 -1.429,-2.142 c 0.288,-0.555 0.528,-1.134 0.718,-1.732 z M 47.181,19 47,19.902 V 11 h 2 v 8 z m -6.939,7.943 a 10.972,10.972 0 0 0 -0.718,1.732 L 37,29.18 v 5.64 l 2.524,0.505 c 0.189,0.598 0.43,1.177 0.718,1.732 l -1.429,2.142 3.987,3.987 2.143,-1.428 c 0.018,0.01 0.038,0.017 0.057,0.026 V 53 H 21 V 37 h 1.026 L 29,40.653 V 37 h 6 v -2 h -6 v -2 h 6 v -2 h -6 v -2 h 6 v -2 h -6 v -2 h 6 V 23 H 29 V 21 H 40 V 19 H 29 V 17 H 43 V 15 H 28.816 A 2.996,2.996 0 0 0 26,13 H 21 V 11 H 45 V 22.215 L 44.943,22.241 42.8,20.813 38.813,24.8 Z M 20,3 h 26 c 1.654,0 3,1.346 3,3 V 9 H 17 V 6 c 0,-1.654 1.346,-3 3,-3 z m -3,8 h 2 v 2 H 17 Z M 3,34 V 16 c 0,-0.551 0.448,-1 1,-1 h 22 c 0.552,0 1,0.449 1,1 V 37.347 L 22.519,35 H 4 C 3.448,35 3,34.551 3,34 Z m 16,3 V 53 H 17 V 37 Z M 46,61 H 20 c -1.654,0 -3,-1.346 -3,-3 v -3 h 32 v 3 c 0,1.654 -1.346,3 -3,3 z m 3,-8 H 47 V 44.098 L 47.181,45 H 49 Z m 9.868,-19.393 -0.155,0.61 a 8.963,8.963 0 0 1 -0.984,2.375 l -0.322,0.542 1.206,1.81 -1.669,1.669 -1.811,-1.207 -0.541,0.323 a 8.94,8.94 0 0 1 -2.374,0.983 L 51.607,40.867 51.181,43 H 48.82 L 48.394,40.868 47.783,40.713 A 8.94,8.94 0 0 1 45.409,39.73 l -0.541,-0.323 -1.811,1.207 -1.669,-1.669 1.206,-1.81 -0.322,-0.542 A 8.93,8.93 0 0 1 41.288,34.218 L 41.133,33.608 39,33.18 v -2.36 l 2.132,-0.427 0.155,-0.61 a 8.963,8.963 0 0 1 0.984,-2.375 l 0.322,-0.542 -1.206,-1.81 1.669,-1.669 1.811,1.207 0.541,-0.323 a 8.94,8.94 0 0 1 2.374,-0.983 L 48.393,23.133 48.819,21 h 2.361 l 0.426,2.132 0.611,0.155 a 8.94,8.94 0 0 1 2.374,0.983 l 0.541,0.323 1.811,-1.207 1.669,1.669 -1.206,1.81 0.322,0.542 a 8.93,8.93 0 0 1 0.984,2.375 l 0.155,0.61 L 61,30.82 v 2.36 z"
       id="path7"
       style="fill:#ebecf0;fill-opacity:1;stroke-width:1.50425" />
    <path
       d="m 53,32 c 0,-1.654 -1.346,-3 -3,-3 -1.654,0 -3,1.346 -3,3 0,1.654 1.346,3 3,3 1.654,0 3,-1.346 3,-3 z m -4,0 a 1.001,1.001 0 1 1 1,1 c -0.552,0 -1,-0.449 -1,-1 z M 13.5,21 h 3 c 0.827,0 1.5,0.673 1.5,1.5 h 2 C 20,20.57 18.43,19 16.5,19 H 16 v -2 h -2 v 2 h -0.5 c -1.93,0 -3.5,1.57 -3.5,3.5 0,1.93 1.57,3.5 3.5,3.5 h 3 c 0.827,0 1.5,0.673 1.5,1.5 0,0.827 -0.673,1.5 -1.5,1.5 h -3 C 12.673,29 12,28.327 12,27.5 h -2 c 0,1.93 1.57,3.5 3.5,3.5 H 14 v 2 h 2 v -2 h 0.5 C 18.43,31 20,29.43 20,27.5 20,25.57 18.43,24 16.5,24 h -3 C 12.673,24 12,23.327 12,22.5 12,21.673 12.673,21 13.5,21 Z M 37,45 h 2 v 4 H 29 v 2 h 12 v -8 h -4 z"
       id="path9"
       style="fill:#ebecf0;fill-opacity:1;stroke-width:1.50425" />
    <path
       d="M 25,45 H 35 V 43 H 23 v 8 h 4 V 49 H 25 Z M 5,17 h 2 v 2 H 5 Z m 18,0 h 2 v 2 H 23 Z M 5,31 h 2 v 2 H 5 Z m 18,0 h 2 v 2 h -2 z m 27,6 c -2.757,0 -5,-2.243 -5,-5 0,-1.04 0.321,-2.04 0.928,-2.893 l -1.629,-1.16 A 6.949,6.949 0 0 0 43,32 c 0,3.86 3.141,7 7,7 a 6.951,6.951 0 0 0 4.053,-1.299 l -1.16,-1.629 A 4.964,4.964 0 0 1 50,37 Z m 0,-12 a 6.951,6.951 0 0 0 -4.053,1.299 l 1.16,1.629 A 4.964,4.964 0 0 1 50,27 c 2.757,0 5,2.243 5,5 0,1.04 -0.321,2.04 -0.928,2.893 l 1.629,1.16 A 6.949,6.949 0 0 0 57,32 c 0,-3.86 -3.141,-7 -7,-7 z"
       id="path11"
       style="fill:#ebecf0;fill-opacity:1;stroke-width:1.50425" />
  </g>
</svg>
