<svg data-v-423bf9ae="" xmlns="http://www.w3.org/2000/svg" viewBox="0 0 475.50299081312494 60" class="font"><!----><!----><!----><g data-v-423bf9ae="" id="e11278f8-521c-4f17-851d-2b7973e45e5b" fill="white" transform="matrix(5.917160119482044,0,0,5.917160119482044,-10.11834312159607,-20.532545068638264)"><path d="M5.56 13.61L5.56 13.61Q3.74 13.61 2.72 12.54L2.72 12.54L2.72 12.54Q1.71 11.48 1.71 9.42L1.71 9.42L1.71 3.75L2.18 3.75L2.18 9.41L2.18 9.41Q2.18 11.28 3.05 12.23L3.05 12.23L3.05 12.23Q3.92 13.17 5.56 13.17L5.56 13.17L5.56 13.17Q7.18 13.17 8.06 12.23L8.06 12.23L8.06 12.23Q8.93 11.28 8.93 9.41L8.93 9.41L8.93 3.75L9.39 3.75L9.39 9.42L9.39 9.42Q9.39 11.48 8.39 12.54L8.39 12.54L8.39 12.54Q7.38 13.61 5.56 13.61L5.56 13.61ZM16.09 6.23L16.09 6.23Q17.44 6.23 18.23 7.02L18.23 7.02L18.23 7.02Q19.01 7.81 19.01 9.28L19.01 9.28L19.01 13.55L18.55 13.55L18.55 9.31L18.55 9.31Q18.55 8.02 17.90 7.34L17.90 7.34L17.90 7.34Q17.25 6.66 16.04 6.66L16.04 6.66L16.04 6.66Q14.69 6.66 13.90 7.47L13.90 7.47L13.90 7.47Q13.12 8.27 13.12 9.63L13.12 9.63L13.12 13.55L12.66 13.55L12.66 6.29L13.10 6.29L13.10 8.06L13.10 8.06Q13.45 7.21 14.23 6.72L14.23 6.72L14.23 6.72Q15.01 6.23 16.09 6.23L16.09 6.23ZM22.04 13.55L22.04 6.29L22.50 6.29L22.50 13.55L22.04 13.55ZM22.26 4.38L22.26 4.38Q22.08 4.38 21.94 4.25L21.94 4.25L21.94 4.25Q21.80 4.12 21.80 3.93L21.80 3.93L21.80 3.93Q21.80 3.74 21.93 3.60L21.93 3.60L21.93 3.60Q22.06 3.47 22.26 3.47L22.26 3.47L22.26 3.47Q22.44 3.47 22.58 3.60L22.58 3.60L22.58 3.60Q22.72 3.74 22.72 3.92L22.72 3.92L22.72 3.92Q22.72 4.10 22.58 4.24L22.58 4.24L22.58 4.24Q22.44 4.38 22.26 4.38L22.26 4.38ZM27.71 13.55L27.71 4.19L24.11 4.19L24.11 3.75L31.77 3.75L31.77 4.19L28.17 4.19L28.17 13.55L27.71 13.55ZM33.82 8.04L33.82 8.04Q34.15 7.17 34.87 6.70L34.87 6.70L34.87 6.70Q35.59 6.23 36.65 6.23L36.65 6.23L36.65 6.69L36.53 6.69L36.53 6.69Q35.27 6.69 34.55 7.49L34.55 7.49L34.55 7.49Q33.84 8.29 33.84 9.69L33.84 9.69L33.84 13.55L33.38 13.55L33.38 6.29L33.82 6.29L33.82 8.04ZM41.19 6.23L41.19 6.23Q42.49 6.23 43.18 6.90L43.18 6.90L43.18 6.90Q43.88 7.57 43.88 8.85L43.88 8.85L43.88 13.55L43.43 13.55L43.43 12.10L43.43 12.10Q43.08 12.80 42.38 13.20L42.38 13.20L42.38 13.20Q41.69 13.59 40.73 13.59L40.73 13.59L40.73 13.59Q39.51 13.59 38.81 13.03L38.81 13.03L38.81 13.03Q38.12 12.47 38.12 11.55L38.12 11.55L38.12 11.55Q38.12 10.67 38.75 10.11L38.75 10.11L38.75 10.11Q39.38 9.56 40.77 9.56L40.77 9.56L43.41 9.56L43.41 8.85L43.41 8.85Q43.41 7.77 42.85 7.21L42.85 7.21L42.85 7.21Q42.28 6.65 41.17 6.65L41.17 6.65L41.17 6.65Q40.40 6.65 39.73 6.92L39.73 6.92L39.73 6.92Q39.06 7.18 38.58 7.63L38.58 7.63L38.33 7.29L38.33 7.29Q38.86 6.79 39.61 6.51L39.61 6.51L39.61 6.51Q40.36 6.23 41.19 6.23L41.19 6.23ZM40.75 13.20L40.75 13.20Q42.71 13.20 43.41 11.45L43.41 11.45L43.41 9.94L40.77 9.94L40.77 9.94Q39.63 9.94 39.11 10.37L39.11 10.37L39.11 10.37Q38.58 10.79 38.58 11.52L38.58 11.52L38.58 11.52Q38.58 12.31 39.16 12.75L39.16 12.75L39.16 12.75Q39.75 13.20 40.75 13.20L40.75 13.20ZM50.33 6.23L50.33 6.23Q51.69 6.23 52.47 7.02L52.47 7.02L52.47 7.02Q53.26 7.81 53.26 9.28L53.26 9.28L53.26 13.55L52.79 13.55L52.79 9.31L52.79 9.31Q52.79 8.02 52.14 7.34L52.14 7.34L52.14 7.34Q51.49 6.66 50.29 6.66L50.29 6.66L50.29 6.66Q48.93 6.66 48.15 7.47L48.15 7.47L48.15 7.47Q47.36 8.27 47.36 9.63L47.36 9.63L47.36 13.55L46.90 13.55L46.90 6.29L47.35 6.29L47.35 8.06L47.35 8.06Q47.70 7.21 48.47 6.72L48.47 6.72L48.47 6.72Q49.25 6.23 50.33 6.23L50.33 6.23ZM58.03 13.59L58.03 13.59Q57.15 13.59 56.37 13.33L56.37 13.33L56.37 13.33Q55.59 13.06 55.16 12.63L55.16 12.63L55.38 12.26L55.38 12.26Q55.83 12.66 56.54 12.92L56.54 12.92L56.54 12.92Q57.25 13.19 58.04 13.19L58.04 13.19L58.04 13.19Q59.22 13.19 59.78 12.79L59.78 12.79L59.78 12.79Q60.34 12.39 60.34 11.68L60.34 11.68L60.34 11.68Q60.34 11.17 60.04 10.88L60.04 10.88L60.04 10.88Q59.74 10.58 59.29 10.44L59.29 10.44L59.29 10.44Q58.84 10.30 58.09 10.16L58.09 10.16L58.09 10.16Q57.20 10.00 56.68 9.82L56.68 9.82L56.68 9.82Q56.15 9.65 55.79 9.25L55.79 9.25L55.79 9.25Q55.43 8.86 55.43 8.16L55.43 8.16L55.43 8.16Q55.43 7.34 56.10 6.78L56.10 6.78L56.10 6.78Q56.78 6.23 58.09 6.23L58.09 6.23L58.09 6.23Q58.76 6.23 59.43 6.43L59.43 6.43L59.43 6.43Q60.10 6.64 60.52 6.97L60.52 6.97L60.28 7.34L60.28 7.34Q59.85 7.00 59.27 6.82L59.27 6.82L59.27 6.82Q58.69 6.65 58.07 6.65L58.07 6.65L58.07 6.65Q56.99 6.65 56.45 7.06L56.45 7.06L56.45 7.06Q55.90 7.48 55.90 8.15L55.90 8.15L55.90 8.15Q55.90 8.68 56.21 8.99L56.21 8.99L56.21 8.99Q56.52 9.30 56.97 9.44L56.97 9.44L56.97 9.44Q57.43 9.59 58.21 9.74L58.21 9.74L58.21 9.74Q59.05 9.90 59.57 10.07L59.57 10.07L59.57 10.07Q60.09 10.25 60.45 10.63L60.45 10.63L60.45 10.63Q60.80 11.00 60.80 11.68L60.80 11.68L60.80 11.68Q60.80 12.56 60.09 13.08L60.09 13.08L60.09 13.08Q59.37 13.59 58.03 13.59L58.03 13.59ZM65.24 6.23L65.24 6.23Q66.54 6.23 67.23 6.90L67.23 6.90L67.23 6.90Q67.93 7.57 67.93 8.85L67.93 8.85L67.93 13.55L67.48 13.55L67.48 12.10L67.48 12.10Q67.13 12.80 66.44 13.20L66.44 13.20L66.44 13.20Q65.74 13.59 64.78 13.59L64.78 13.59L64.78 13.59Q63.56 13.59 62.87 13.03L62.87 13.03L62.87 13.03Q62.17 12.47 62.17 11.55L62.17 11.55L62.17 11.55Q62.17 10.67 62.80 10.11L62.80 10.11L62.80 10.11Q63.43 9.56 64.82 9.56L64.82 9.56L67.47 9.56L67.47 8.85L67.47 8.85Q67.47 7.77 66.90 7.21L66.90 7.21L66.90 7.21Q66.33 6.65 65.23 6.65L65.23 6.65L65.23 6.65Q64.46 6.65 63.78 6.92L63.78 6.92L63.78 6.92Q63.11 7.18 62.64 7.63L62.64 7.63L62.38 7.29L62.38 7.29Q62.92 6.79 63.66 6.51L63.66 6.51L63.66 6.51Q64.41 6.23 65.24 6.23L65.24 6.23ZM64.81 13.20L64.81 13.20Q66.77 13.20 67.47 11.45L67.47 11.45L67.47 9.94L64.82 9.94L64.82 9.94Q63.69 9.94 63.16 10.37L63.16 10.37L63.16 10.37Q62.64 10.79 62.64 11.52L62.64 11.52L62.64 11.52Q62.64 12.31 63.22 12.75L63.22 12.75L63.22 12.75Q63.80 13.20 64.81 13.20L64.81 13.20ZM73.74 13.59L73.74 13.59Q72.70 13.59 71.88 13.13L71.88 13.13L71.88 13.13Q71.06 12.66 70.59 11.82L70.59 11.82L70.59 11.82Q70.13 10.98 70.13 9.91L70.13 9.91L70.13 9.91Q70.13 8.85 70.59 8.01L70.59 8.01L70.59 8.01Q71.06 7.17 71.88 6.70L71.88 6.70L71.88 6.70Q72.70 6.23 73.74 6.23L73.74 6.23L73.74 6.23Q74.56 6.23 75.27 6.54L75.27 6.54L75.27 6.54Q75.98 6.86 76.43 7.48L76.43 7.48L76.08 7.77L76.08 7.77Q75.68 7.22 75.08 6.94L75.08 6.94L75.08 6.94Q74.47 6.66 73.74 6.66L73.74 6.66L73.74 6.66Q72.84 6.66 72.12 7.08L72.12 7.08L72.12 7.08Q71.40 7.49 70.99 8.22L70.99 8.22L70.99 8.22Q70.59 8.96 70.59 9.91L70.59 9.91L70.59 9.91Q70.59 10.86 70.99 11.61L70.99 11.61L70.99 11.61Q71.40 12.35 72.12 12.76L72.12 12.76L72.12 12.76Q72.84 13.17 73.74 13.17L73.74 13.17L73.74 13.17Q74.47 13.17 75.08 12.89L75.08 12.89L75.08 12.89Q75.68 12.61 76.08 12.07L76.08 12.07L76.43 12.35L76.43 12.35Q75.98 12.96 75.27 13.28L75.27 13.28L75.27 13.28Q74.56 13.59 73.74 13.59L73.74 13.59ZM81.83 12.75L82.07 13.09L82.07 13.09Q81.82 13.33 81.42 13.46L81.42 13.46L81.42 13.46Q81.03 13.59 80.61 13.59L80.61 13.59L80.61 13.59Q79.73 13.59 79.25 13.10L79.25 13.10L79.25 13.10Q78.76 12.60 78.76 11.73L78.76 11.73L78.76 6.69L77.39 6.69L77.39 6.29L78.76 6.29L78.76 4.69L79.23 4.69L79.23 6.29L81.62 6.29L81.62 6.69L79.23 6.69L79.23 11.66L79.23 11.66Q79.23 12.40 79.59 12.80L79.59 12.80L79.59 12.80Q79.95 13.19 80.65 13.19L80.65 13.19L80.65 13.19Q81.35 13.19 81.83 12.75L81.83 12.75Z"></path></g><!----><!----></svg>