<?xml version="1.0" standalone="no"?>
<!DOCTYPE svg PUBLIC "-//W3C//DTD SVG 20010904//EN"
 "http://www.w3.org/TR/2001/REC-SVG-20010904/DTD/svg10.dtd">
<svg version="1.0" xmlns="http://www.w3.org/2000/svg"
 width="1042.000000pt" height="1042.000000pt" viewBox="0 0 1042.000000 1042.000000"
 preserveAspectRatio="xMidYMid meet">
<metadata>
Created by potrace 1.14, written by Peter Selinger 2001-2017
</metadata>
<g transform="translate(0.000000,1042.000000) scale(0.100000,-0.100000)"
fill="#000000" stroke="none">
<path d="M1015 10405 c-161 -28 -295 -76 -425 -153 -97 -57 -146 -96 -250
-201 -130 -131 -219 -277 -280 -459 -62 -189 -58 137 -58 -4372 -1 -2263 3
-4140 8 -4170 13 -89 20 -122 37 -180 116 -405 445 -726 851 -830 42 -11 91
-23 107 -27 17 -4 1893 -9 4170 -10 4042 -2 4143 -2 4250 17 369 64 687 296
858 627 48 93 101 240 112 309 3 22 10 64 15 94 5 34 8 1665 7 4200 -3 3900
-4 4149 -20 4215 -64 258 -180 462 -356 628 -160 150 -339 244 -578 304 -64
16 -339 17 -4223 19 -3245 1 -4170 -1 -4225 -11z"/>
</g>
</svg>
